<mxfile host="app.diagrams.net" agent="Mozilla/5.0 (Windows NT 10.0; Win64; x64) AppleWebKit/537.36 (KHTML, like Gecko) Chrome/131.0.0.0 Safari/537.36" version="25.0.3">
  <diagram name="Page-1" id="6kvfa_6h6tVvRZBN9jJi">
    <mxGraphModel dx="2607" dy="1356" grid="1" gridSize="10" guides="1" tooltips="1" connect="1" arrows="1" fold="1" page="1" pageScale="1" pageWidth="850" pageHeight="1100" math="0" shadow="0">
      <root>
        <mxCell id="0" />
        <mxCell id="1" parent="0" />
        <mxCell id="hdkeTffcCmkld0RfmDk9-12" style="edgeStyle=orthogonalEdgeStyle;rounded=0;orthogonalLoop=1;jettySize=auto;html=1;entryX=0.5;entryY=0;entryDx=0;entryDy=0;" edge="1" parent="1" source="hdkeTffcCmkld0RfmDk9-1" target="hdkeTffcCmkld0RfmDk9-3">
          <mxGeometry relative="1" as="geometry" />
        </mxCell>
        <mxCell id="hdkeTffcCmkld0RfmDk9-1" value="&lt;font style=&quot;font-size: 24px;&quot;&gt;start&lt;/font&gt;" style="strokeWidth=2;html=1;shape=mxgraph.flowchart.start_1;whiteSpace=wrap;" vertex="1" parent="1">
          <mxGeometry x="375" y="40" width="100" height="60" as="geometry" />
        </mxCell>
        <mxCell id="hdkeTffcCmkld0RfmDk9-2" value="&lt;font style=&quot;font-size: 24px;&quot;&gt;end&lt;/font&gt;" style="strokeWidth=2;html=1;shape=mxgraph.flowchart.start_1;whiteSpace=wrap;" vertex="1" parent="1">
          <mxGeometry x="375" y="2850" width="100" height="60" as="geometry" />
        </mxCell>
        <mxCell id="hdkeTffcCmkld0RfmDk9-13" style="edgeStyle=orthogonalEdgeStyle;rounded=0;orthogonalLoop=1;jettySize=auto;html=1;entryX=0.5;entryY=0;entryDx=0;entryDy=0;" edge="1" parent="1" source="hdkeTffcCmkld0RfmDk9-3" target="hdkeTffcCmkld0RfmDk9-4">
          <mxGeometry relative="1" as="geometry" />
        </mxCell>
        <mxCell id="hdkeTffcCmkld0RfmDk9-3" value="input row1, col1" style="shape=parallelogram;perimeter=parallelogramPerimeter;whiteSpace=wrap;html=1;fixedSize=1;" vertex="1" parent="1">
          <mxGeometry x="340" y="150" width="171" height="60" as="geometry" />
        </mxCell>
        <mxCell id="hdkeTffcCmkld0RfmDk9-10" style="edgeStyle=orthogonalEdgeStyle;rounded=0;orthogonalLoop=1;jettySize=auto;html=1;entryX=0.5;entryY=0;entryDx=0;entryDy=0;" edge="1" parent="1" source="hdkeTffcCmkld0RfmDk9-4" target="hdkeTffcCmkld0RfmDk9-6">
          <mxGeometry relative="1" as="geometry" />
        </mxCell>
        <mxCell id="hdkeTffcCmkld0RfmDk9-24" style="edgeStyle=orthogonalEdgeStyle;rounded=0;orthogonalLoop=1;jettySize=auto;html=1;entryX=0.5;entryY=0;entryDx=0;entryDy=0;" edge="1" parent="1" source="hdkeTffcCmkld0RfmDk9-4" target="hdkeTffcCmkld0RfmDk9-16">
          <mxGeometry relative="1" as="geometry" />
        </mxCell>
        <mxCell id="hdkeTffcCmkld0RfmDk9-4" value="for ( i &amp;lt; row1, i++ )" style="rhombus;whiteSpace=wrap;html=1;" vertex="1" parent="1">
          <mxGeometry x="352" y="250" width="146" height="90" as="geometry" />
        </mxCell>
        <mxCell id="hdkeTffcCmkld0RfmDk9-8" style="edgeStyle=orthogonalEdgeStyle;rounded=0;orthogonalLoop=1;jettySize=auto;html=1;entryX=0.5;entryY=0;entryDx=0;entryDy=0;" edge="1" parent="1" source="hdkeTffcCmkld0RfmDk9-6" target="hdkeTffcCmkld0RfmDk9-7">
          <mxGeometry relative="1" as="geometry" />
        </mxCell>
        <mxCell id="hdkeTffcCmkld0RfmDk9-11" style="edgeStyle=orthogonalEdgeStyle;rounded=0;orthogonalLoop=1;jettySize=auto;html=1;entryX=1;entryY=1;entryDx=0;entryDy=0;" edge="1" parent="1" source="hdkeTffcCmkld0RfmDk9-6" target="hdkeTffcCmkld0RfmDk9-4">
          <mxGeometry relative="1" as="geometry" />
        </mxCell>
        <mxCell id="hdkeTffcCmkld0RfmDk9-6" value="for ( j &amp;lt; col1, j++ )" style="rhombus;whiteSpace=wrap;html=1;" vertex="1" parent="1">
          <mxGeometry x="511" y="350" width="146" height="90" as="geometry" />
        </mxCell>
        <mxCell id="hdkeTffcCmkld0RfmDk9-9" style="edgeStyle=orthogonalEdgeStyle;rounded=0;orthogonalLoop=1;jettySize=auto;html=1;entryX=1;entryY=1;entryDx=0;entryDy=0;" edge="1" parent="1" source="hdkeTffcCmkld0RfmDk9-7" target="hdkeTffcCmkld0RfmDk9-6">
          <mxGeometry relative="1" as="geometry" />
        </mxCell>
        <mxCell id="hdkeTffcCmkld0RfmDk9-7" value="input matrix[i][j]" style="shape=parallelogram;perimeter=parallelogramPerimeter;whiteSpace=wrap;html=1;fixedSize=1;" vertex="1" parent="1">
          <mxGeometry x="670" y="450" width="139.5" height="60" as="geometry" />
        </mxCell>
        <mxCell id="hdkeTffcCmkld0RfmDk9-15" style="edgeStyle=orthogonalEdgeStyle;rounded=0;orthogonalLoop=1;jettySize=auto;html=1;entryX=0.5;entryY=0;entryDx=0;entryDy=0;" edge="1" parent="1" source="hdkeTffcCmkld0RfmDk9-16" target="hdkeTffcCmkld0RfmDk9-18">
          <mxGeometry relative="1" as="geometry" />
        </mxCell>
        <mxCell id="hdkeTffcCmkld0RfmDk9-16" value="input row2, col2" style="shape=parallelogram;perimeter=parallelogramPerimeter;whiteSpace=wrap;html=1;fixedSize=1;" vertex="1" parent="1">
          <mxGeometry x="340" y="450" width="171" height="60" as="geometry" />
        </mxCell>
        <mxCell id="hdkeTffcCmkld0RfmDk9-17" style="edgeStyle=orthogonalEdgeStyle;rounded=0;orthogonalLoop=1;jettySize=auto;html=1;entryX=0.5;entryY=0;entryDx=0;entryDy=0;" edge="1" parent="1" source="hdkeTffcCmkld0RfmDk9-18" target="hdkeTffcCmkld0RfmDk9-21">
          <mxGeometry relative="1" as="geometry" />
        </mxCell>
        <mxCell id="hdkeTffcCmkld0RfmDk9-26" style="edgeStyle=orthogonalEdgeStyle;rounded=0;orthogonalLoop=1;jettySize=auto;html=1;entryX=0.5;entryY=0;entryDx=0;entryDy=0;" edge="1" parent="1" source="hdkeTffcCmkld0RfmDk9-18" target="hdkeTffcCmkld0RfmDk9-25">
          <mxGeometry relative="1" as="geometry" />
        </mxCell>
        <mxCell id="hdkeTffcCmkld0RfmDk9-18" value="for ( i &amp;lt; row2, i++ )" style="rhombus;whiteSpace=wrap;html=1;" vertex="1" parent="1">
          <mxGeometry x="352" y="550" width="146" height="90" as="geometry" />
        </mxCell>
        <mxCell id="hdkeTffcCmkld0RfmDk9-19" style="edgeStyle=orthogonalEdgeStyle;rounded=0;orthogonalLoop=1;jettySize=auto;html=1;entryX=0.5;entryY=0;entryDx=0;entryDy=0;" edge="1" parent="1" source="hdkeTffcCmkld0RfmDk9-21" target="hdkeTffcCmkld0RfmDk9-23">
          <mxGeometry relative="1" as="geometry" />
        </mxCell>
        <mxCell id="hdkeTffcCmkld0RfmDk9-20" style="edgeStyle=orthogonalEdgeStyle;rounded=0;orthogonalLoop=1;jettySize=auto;html=1;entryX=1;entryY=1;entryDx=0;entryDy=0;" edge="1" parent="1" source="hdkeTffcCmkld0RfmDk9-21" target="hdkeTffcCmkld0RfmDk9-18">
          <mxGeometry relative="1" as="geometry" />
        </mxCell>
        <mxCell id="hdkeTffcCmkld0RfmDk9-21" value="for ( j &amp;lt; col2, j++)" style="rhombus;whiteSpace=wrap;html=1;" vertex="1" parent="1">
          <mxGeometry x="511" y="650" width="146" height="90" as="geometry" />
        </mxCell>
        <mxCell id="hdkeTffcCmkld0RfmDk9-22" style="edgeStyle=orthogonalEdgeStyle;rounded=0;orthogonalLoop=1;jettySize=auto;html=1;entryX=1;entryY=1;entryDx=0;entryDy=0;" edge="1" parent="1" source="hdkeTffcCmkld0RfmDk9-23" target="hdkeTffcCmkld0RfmDk9-21">
          <mxGeometry relative="1" as="geometry" />
        </mxCell>
        <mxCell id="hdkeTffcCmkld0RfmDk9-23" value="input matrix[i][j]" style="shape=parallelogram;perimeter=parallelogramPerimeter;whiteSpace=wrap;html=1;fixedSize=1;" vertex="1" parent="1">
          <mxGeometry x="670" y="750" width="139.5" height="60" as="geometry" />
        </mxCell>
        <mxCell id="hdkeTffcCmkld0RfmDk9-31" style="edgeStyle=orthogonalEdgeStyle;rounded=0;orthogonalLoop=1;jettySize=auto;html=1;" edge="1" parent="1" source="hdkeTffcCmkld0RfmDk9-25" target="hdkeTffcCmkld0RfmDk9-28">
          <mxGeometry relative="1" as="geometry" />
        </mxCell>
        <mxCell id="hdkeTffcCmkld0RfmDk9-25" value="output&lt;div&gt;&quot;Matrix1&quot;&lt;/div&gt;" style="shape=parallelogram;perimeter=parallelogramPerimeter;whiteSpace=wrap;html=1;fixedSize=1;" vertex="1" parent="1">
          <mxGeometry x="339.5" y="780" width="171" height="60" as="geometry" />
        </mxCell>
        <mxCell id="hdkeTffcCmkld0RfmDk9-32" style="edgeStyle=orthogonalEdgeStyle;rounded=0;orthogonalLoop=1;jettySize=auto;html=1;entryX=0.5;entryY=0;entryDx=0;entryDy=0;" edge="1" parent="1" source="hdkeTffcCmkld0RfmDk9-28" target="hdkeTffcCmkld0RfmDk9-29">
          <mxGeometry relative="1" as="geometry" />
        </mxCell>
        <mxCell id="hdkeTffcCmkld0RfmDk9-40" style="edgeStyle=orthogonalEdgeStyle;rounded=0;orthogonalLoop=1;jettySize=auto;html=1;entryX=0.5;entryY=0;entryDx=0;entryDy=0;" edge="1" parent="1" source="hdkeTffcCmkld0RfmDk9-28" target="hdkeTffcCmkld0RfmDk9-36">
          <mxGeometry relative="1" as="geometry" />
        </mxCell>
        <mxCell id="hdkeTffcCmkld0RfmDk9-28" value="for ( i &amp;lt; row1, i++ )" style="rhombus;whiteSpace=wrap;html=1;" vertex="1" parent="1">
          <mxGeometry x="352" y="880" width="146" height="90" as="geometry" />
        </mxCell>
        <mxCell id="hdkeTffcCmkld0RfmDk9-33" style="edgeStyle=orthogonalEdgeStyle;rounded=0;orthogonalLoop=1;jettySize=auto;html=1;entryX=1;entryY=1;entryDx=0;entryDy=0;" edge="1" parent="1" source="hdkeTffcCmkld0RfmDk9-29" target="hdkeTffcCmkld0RfmDk9-28">
          <mxGeometry relative="1" as="geometry" />
        </mxCell>
        <mxCell id="hdkeTffcCmkld0RfmDk9-34" style="edgeStyle=orthogonalEdgeStyle;rounded=0;orthogonalLoop=1;jettySize=auto;html=1;entryX=0.5;entryY=0;entryDx=0;entryDy=0;" edge="1" parent="1" source="hdkeTffcCmkld0RfmDk9-29" target="hdkeTffcCmkld0RfmDk9-30">
          <mxGeometry relative="1" as="geometry" />
        </mxCell>
        <mxCell id="hdkeTffcCmkld0RfmDk9-29" value="for ( j &amp;lt; col1, j++)" style="rhombus;whiteSpace=wrap;html=1;" vertex="1" parent="1">
          <mxGeometry x="511" y="980" width="146" height="90" as="geometry" />
        </mxCell>
        <mxCell id="hdkeTffcCmkld0RfmDk9-35" style="edgeStyle=orthogonalEdgeStyle;rounded=0;orthogonalLoop=1;jettySize=auto;html=1;entryX=1;entryY=1;entryDx=0;entryDy=0;" edge="1" parent="1" source="hdkeTffcCmkld0RfmDk9-30" target="hdkeTffcCmkld0RfmDk9-29">
          <mxGeometry relative="1" as="geometry" />
        </mxCell>
        <mxCell id="hdkeTffcCmkld0RfmDk9-30" value="output Matrix1[i][j]" style="shape=parallelogram;perimeter=parallelogramPerimeter;whiteSpace=wrap;html=1;fixedSize=1;" vertex="1" parent="1">
          <mxGeometry x="670" y="1080" width="139.5" height="60" as="geometry" />
        </mxCell>
        <mxCell id="hdkeTffcCmkld0RfmDk9-41" value="" style="edgeStyle=orthogonalEdgeStyle;rounded=0;orthogonalLoop=1;jettySize=auto;html=1;" edge="1" parent="1" source="hdkeTffcCmkld0RfmDk9-36" target="hdkeTffcCmkld0RfmDk9-37">
          <mxGeometry relative="1" as="geometry" />
        </mxCell>
        <mxCell id="hdkeTffcCmkld0RfmDk9-36" value="output&lt;div&gt;&quot;Matrix2&quot;&lt;/div&gt;" style="shape=parallelogram;perimeter=parallelogramPerimeter;whiteSpace=wrap;html=1;fixedSize=1;" vertex="1" parent="1">
          <mxGeometry x="339.5" y="1070" width="171" height="60" as="geometry" />
        </mxCell>
        <mxCell id="hdkeTffcCmkld0RfmDk9-42" style="edgeStyle=orthogonalEdgeStyle;rounded=0;orthogonalLoop=1;jettySize=auto;html=1;entryX=0.5;entryY=0;entryDx=0;entryDy=0;" edge="1" parent="1" source="hdkeTffcCmkld0RfmDk9-37" target="hdkeTffcCmkld0RfmDk9-38">
          <mxGeometry relative="1" as="geometry" />
        </mxCell>
        <mxCell id="hdkeTffcCmkld0RfmDk9-47" style="edgeStyle=orthogonalEdgeStyle;rounded=0;orthogonalLoop=1;jettySize=auto;html=1;entryX=0.5;entryY=0;entryDx=0;entryDy=0;" edge="1" parent="1" source="hdkeTffcCmkld0RfmDk9-37" target="hdkeTffcCmkld0RfmDk9-46">
          <mxGeometry relative="1" as="geometry" />
        </mxCell>
        <mxCell id="hdkeTffcCmkld0RfmDk9-37" value="for ( i &amp;lt; row2, i++ )" style="rhombus;whiteSpace=wrap;html=1;" vertex="1" parent="1">
          <mxGeometry x="352" y="1170" width="146" height="90" as="geometry" />
        </mxCell>
        <mxCell id="hdkeTffcCmkld0RfmDk9-43" style="edgeStyle=orthogonalEdgeStyle;rounded=0;orthogonalLoop=1;jettySize=auto;html=1;entryX=1;entryY=1;entryDx=0;entryDy=0;" edge="1" parent="1" source="hdkeTffcCmkld0RfmDk9-38" target="hdkeTffcCmkld0RfmDk9-37">
          <mxGeometry relative="1" as="geometry" />
        </mxCell>
        <mxCell id="hdkeTffcCmkld0RfmDk9-44" style="edgeStyle=orthogonalEdgeStyle;rounded=0;orthogonalLoop=1;jettySize=auto;html=1;entryX=0.5;entryY=0;entryDx=0;entryDy=0;" edge="1" parent="1" source="hdkeTffcCmkld0RfmDk9-38" target="hdkeTffcCmkld0RfmDk9-39">
          <mxGeometry relative="1" as="geometry" />
        </mxCell>
        <mxCell id="hdkeTffcCmkld0RfmDk9-38" value="for ( j &amp;lt; col2, j++)" style="rhombus;whiteSpace=wrap;html=1;" vertex="1" parent="1">
          <mxGeometry x="511" y="1270" width="146" height="90" as="geometry" />
        </mxCell>
        <mxCell id="hdkeTffcCmkld0RfmDk9-45" style="edgeStyle=orthogonalEdgeStyle;rounded=0;orthogonalLoop=1;jettySize=auto;html=1;entryX=1;entryY=1;entryDx=0;entryDy=0;" edge="1" parent="1" source="hdkeTffcCmkld0RfmDk9-39" target="hdkeTffcCmkld0RfmDk9-38">
          <mxGeometry relative="1" as="geometry" />
        </mxCell>
        <mxCell id="hdkeTffcCmkld0RfmDk9-39" value="output Matrix2[i][j]" style="shape=parallelogram;perimeter=parallelogramPerimeter;whiteSpace=wrap;html=1;fixedSize=1;" vertex="1" parent="1">
          <mxGeometry x="670" y="1370" width="139.5" height="60" as="geometry" />
        </mxCell>
        <mxCell id="hdkeTffcCmkld0RfmDk9-52" style="edgeStyle=orthogonalEdgeStyle;rounded=0;orthogonalLoop=1;jettySize=auto;html=1;entryX=0.5;entryY=0;entryDx=0;entryDy=0;" edge="1" parent="1" source="hdkeTffcCmkld0RfmDk9-46" target="hdkeTffcCmkld0RfmDk9-48">
          <mxGeometry relative="1" as="geometry" />
        </mxCell>
        <mxCell id="hdkeTffcCmkld0RfmDk9-46" value="row3 =col1&lt;div&gt;col3 = row1&lt;/div&gt;" style="rounded=1;whiteSpace=wrap;html=1;absoluteArcSize=1;arcSize=14;strokeWidth=2;" vertex="1" parent="1">
          <mxGeometry x="362.5" y="1440" width="125" height="70" as="geometry" />
        </mxCell>
        <mxCell id="hdkeTffcCmkld0RfmDk9-53" style="edgeStyle=orthogonalEdgeStyle;rounded=0;orthogonalLoop=1;jettySize=auto;html=1;entryX=0.5;entryY=0;entryDx=0;entryDy=0;" edge="1" parent="1" source="hdkeTffcCmkld0RfmDk9-48" target="hdkeTffcCmkld0RfmDk9-49">
          <mxGeometry relative="1" as="geometry" />
        </mxCell>
        <mxCell id="hdkeTffcCmkld0RfmDk9-62" style="edgeStyle=orthogonalEdgeStyle;rounded=0;orthogonalLoop=1;jettySize=auto;html=1;entryX=0.5;entryY=0;entryDx=0;entryDy=0;" edge="1" parent="1" source="hdkeTffcCmkld0RfmDk9-48" target="hdkeTffcCmkld0RfmDk9-57">
          <mxGeometry relative="1" as="geometry" />
        </mxCell>
        <mxCell id="hdkeTffcCmkld0RfmDk9-48" value="for ( i &amp;lt; row3, i++ )" style="rhombus;whiteSpace=wrap;html=1;" vertex="1" parent="1">
          <mxGeometry x="352" y="1560" width="146" height="90" as="geometry" />
        </mxCell>
        <mxCell id="hdkeTffcCmkld0RfmDk9-54" style="edgeStyle=orthogonalEdgeStyle;rounded=0;orthogonalLoop=1;jettySize=auto;html=1;entryX=0.5;entryY=0;entryDx=0;entryDy=0;" edge="1" parent="1" source="hdkeTffcCmkld0RfmDk9-49" target="hdkeTffcCmkld0RfmDk9-51">
          <mxGeometry relative="1" as="geometry" />
        </mxCell>
        <mxCell id="hdkeTffcCmkld0RfmDk9-55" style="edgeStyle=orthogonalEdgeStyle;rounded=0;orthogonalLoop=1;jettySize=auto;html=1;entryX=1;entryY=1;entryDx=0;entryDy=0;" edge="1" parent="1" source="hdkeTffcCmkld0RfmDk9-49" target="hdkeTffcCmkld0RfmDk9-48">
          <mxGeometry relative="1" as="geometry" />
        </mxCell>
        <mxCell id="hdkeTffcCmkld0RfmDk9-49" value="for ( j &amp;lt; col3, j++)" style="rhombus;whiteSpace=wrap;html=1;" vertex="1" parent="1">
          <mxGeometry x="511" y="1660" width="146" height="90" as="geometry" />
        </mxCell>
        <mxCell id="hdkeTffcCmkld0RfmDk9-56" style="edgeStyle=orthogonalEdgeStyle;rounded=0;orthogonalLoop=1;jettySize=auto;html=1;entryX=1;entryY=1;entryDx=0;entryDy=0;" edge="1" parent="1" source="hdkeTffcCmkld0RfmDk9-51" target="hdkeTffcCmkld0RfmDk9-49">
          <mxGeometry relative="1" as="geometry" />
        </mxCell>
        <mxCell id="hdkeTffcCmkld0RfmDk9-51" value="matrix3[i][j] = matrix1[j][i]" style="rounded=1;whiteSpace=wrap;html=1;absoluteArcSize=1;arcSize=14;strokeWidth=2;" vertex="1" parent="1">
          <mxGeometry x="684.5" y="1770" width="145.5" height="70" as="geometry" />
        </mxCell>
        <mxCell id="hdkeTffcCmkld0RfmDk9-59" style="edgeStyle=orthogonalEdgeStyle;rounded=0;orthogonalLoop=1;jettySize=auto;html=1;entryX=0.5;entryY=0;entryDx=0;entryDy=0;" edge="1" parent="1" source="hdkeTffcCmkld0RfmDk9-57" target="hdkeTffcCmkld0RfmDk9-58">
          <mxGeometry relative="1" as="geometry" />
        </mxCell>
        <mxCell id="hdkeTffcCmkld0RfmDk9-61" style="edgeStyle=orthogonalEdgeStyle;rounded=0;orthogonalLoop=1;jettySize=auto;html=1;entryX=0.5;entryY=0;entryDx=0;entryDy=0;" edge="1" parent="1" source="hdkeTffcCmkld0RfmDk9-57" target="hdkeTffcCmkld0RfmDk9-60">
          <mxGeometry relative="1" as="geometry" />
        </mxCell>
        <mxCell id="hdkeTffcCmkld0RfmDk9-57" value="if ( col1 != row2)" style="rhombus;whiteSpace=wrap;html=1;" vertex="1" parent="1">
          <mxGeometry x="352.5" y="1810" width="146" height="90" as="geometry" />
        </mxCell>
        <mxCell id="hdkeTffcCmkld0RfmDk9-58" value="output&lt;br&gt;&quot;Matrix1 and Matrix2 cannot multiply&quot;" style="shape=parallelogram;perimeter=parallelogramPerimeter;whiteSpace=wrap;html=1;fixedSize=1;" vertex="1" parent="1">
          <mxGeometry x="530" y="1900" width="219" height="60" as="geometry" />
        </mxCell>
        <mxCell id="hdkeTffcCmkld0RfmDk9-67" style="edgeStyle=orthogonalEdgeStyle;rounded=0;orthogonalLoop=1;jettySize=auto;html=1;entryX=0.5;entryY=0;entryDx=0;entryDy=0;" edge="1" parent="1" source="hdkeTffcCmkld0RfmDk9-60" target="hdkeTffcCmkld0RfmDk9-65">
          <mxGeometry relative="1" as="geometry" />
        </mxCell>
        <mxCell id="hdkeTffcCmkld0RfmDk9-60" value="row4 =row1&lt;div&gt;col4 = col2&lt;/div&gt;" style="rounded=1;whiteSpace=wrap;html=1;absoluteArcSize=1;arcSize=14;strokeWidth=2;" vertex="1" parent="1">
          <mxGeometry x="362.5" y="1990" width="125" height="70" as="geometry" />
        </mxCell>
        <mxCell id="hdkeTffcCmkld0RfmDk9-76" style="edgeStyle=orthogonalEdgeStyle;rounded=0;orthogonalLoop=1;jettySize=auto;html=1;entryX=0.5;entryY=0;entryDx=0;entryDy=0;" edge="1" parent="1" source="hdkeTffcCmkld0RfmDk9-65" target="hdkeTffcCmkld0RfmDk9-66">
          <mxGeometry relative="1" as="geometry" />
        </mxCell>
        <mxCell id="hdkeTffcCmkld0RfmDk9-79" style="edgeStyle=orthogonalEdgeStyle;rounded=0;orthogonalLoop=1;jettySize=auto;html=1;entryX=0.5;entryY=0;entryDx=0;entryDy=0;" edge="1" parent="1" source="hdkeTffcCmkld0RfmDk9-65" target="hdkeTffcCmkld0RfmDk9-78">
          <mxGeometry relative="1" as="geometry" />
        </mxCell>
        <mxCell id="hdkeTffcCmkld0RfmDk9-65" value="for ( i &amp;lt; row4, i++ )" style="rhombus;whiteSpace=wrap;html=1;" vertex="1" parent="1">
          <mxGeometry x="352" y="2120" width="146" height="90" as="geometry" />
        </mxCell>
        <mxCell id="hdkeTffcCmkld0RfmDk9-75" style="edgeStyle=orthogonalEdgeStyle;rounded=0;orthogonalLoop=1;jettySize=auto;html=1;entryX=0.5;entryY=0;entryDx=0;entryDy=0;" edge="1" parent="1" source="hdkeTffcCmkld0RfmDk9-66" target="hdkeTffcCmkld0RfmDk9-68">
          <mxGeometry relative="1" as="geometry" />
        </mxCell>
        <mxCell id="hdkeTffcCmkld0RfmDk9-77" style="edgeStyle=orthogonalEdgeStyle;rounded=0;orthogonalLoop=1;jettySize=auto;html=1;entryX=1;entryY=1;entryDx=0;entryDy=0;" edge="1" parent="1" source="hdkeTffcCmkld0RfmDk9-66" target="hdkeTffcCmkld0RfmDk9-65">
          <mxGeometry relative="1" as="geometry" />
        </mxCell>
        <mxCell id="hdkeTffcCmkld0RfmDk9-66" value="for ( j &amp;lt; col4, j++)" style="rhombus;whiteSpace=wrap;html=1;" vertex="1" parent="1">
          <mxGeometry x="511" y="2220" width="146" height="90" as="geometry" />
        </mxCell>
        <mxCell id="hdkeTffcCmkld0RfmDk9-70" style="edgeStyle=orthogonalEdgeStyle;rounded=0;orthogonalLoop=1;jettySize=auto;html=1;entryX=0.5;entryY=0;entryDx=0;entryDy=0;" edge="1" parent="1" source="hdkeTffcCmkld0RfmDk9-68" target="hdkeTffcCmkld0RfmDk9-69">
          <mxGeometry relative="1" as="geometry" />
        </mxCell>
        <mxCell id="hdkeTffcCmkld0RfmDk9-68" value="matrix4[i][j] = 0" style="rounded=1;whiteSpace=wrap;html=1;absoluteArcSize=1;arcSize=14;strokeWidth=2;" vertex="1" parent="1">
          <mxGeometry x="684.5" y="2330" width="125" height="70" as="geometry" />
        </mxCell>
        <mxCell id="hdkeTffcCmkld0RfmDk9-72" style="edgeStyle=orthogonalEdgeStyle;rounded=0;orthogonalLoop=1;jettySize=auto;html=1;" edge="1" parent="1" source="hdkeTffcCmkld0RfmDk9-69" target="hdkeTffcCmkld0RfmDk9-71">
          <mxGeometry relative="1" as="geometry" />
        </mxCell>
        <mxCell id="hdkeTffcCmkld0RfmDk9-74" style="edgeStyle=orthogonalEdgeStyle;rounded=0;orthogonalLoop=1;jettySize=auto;html=1;entryX=1;entryY=1;entryDx=0;entryDy=0;" edge="1" parent="1" source="hdkeTffcCmkld0RfmDk9-69" target="hdkeTffcCmkld0RfmDk9-66">
          <mxGeometry relative="1" as="geometry" />
        </mxCell>
        <mxCell id="hdkeTffcCmkld0RfmDk9-69" value="for ( k &amp;lt; col1, k++)" style="rhombus;whiteSpace=wrap;html=1;" vertex="1" parent="1">
          <mxGeometry x="674" y="2450" width="146" height="90" as="geometry" />
        </mxCell>
        <mxCell id="hdkeTffcCmkld0RfmDk9-73" style="edgeStyle=orthogonalEdgeStyle;rounded=0;orthogonalLoop=1;jettySize=auto;html=1;entryX=1;entryY=1;entryDx=0;entryDy=0;" edge="1" parent="1" source="hdkeTffcCmkld0RfmDk9-71" target="hdkeTffcCmkld0RfmDk9-69">
          <mxGeometry relative="1" as="geometry" />
        </mxCell>
        <mxCell id="hdkeTffcCmkld0RfmDk9-71" value="matrix4[i][j] += matrix1[i][k] * matrix2[k][j]" style="rounded=1;whiteSpace=wrap;html=1;absoluteArcSize=1;arcSize=14;strokeWidth=2;" vertex="1" parent="1">
          <mxGeometry x="830" y="2550" width="220" height="70" as="geometry" />
        </mxCell>
        <mxCell id="hdkeTffcCmkld0RfmDk9-82" style="edgeStyle=orthogonalEdgeStyle;rounded=0;orthogonalLoop=1;jettySize=auto;html=1;entryX=0.5;entryY=0;entryDx=0;entryDy=0;" edge="1" parent="1" source="hdkeTffcCmkld0RfmDk9-78" target="hdkeTffcCmkld0RfmDk9-80">
          <mxGeometry relative="1" as="geometry" />
        </mxCell>
        <mxCell id="hdkeTffcCmkld0RfmDk9-78" value="output&lt;br&gt;&quot;Matrix1 x Matrix2 is :&quot;" style="shape=parallelogram;perimeter=parallelogramPerimeter;whiteSpace=wrap;html=1;fixedSize=1;" vertex="1" parent="1">
          <mxGeometry x="316" y="2390" width="219" height="60" as="geometry" />
        </mxCell>
        <mxCell id="hdkeTffcCmkld0RfmDk9-86" style="edgeStyle=orthogonalEdgeStyle;rounded=0;orthogonalLoop=1;jettySize=auto;html=1;entryX=0.5;entryY=0;entryDx=0;entryDy=0;" edge="1" parent="1" source="hdkeTffcCmkld0RfmDk9-80" target="hdkeTffcCmkld0RfmDk9-81">
          <mxGeometry relative="1" as="geometry" />
        </mxCell>
        <mxCell id="hdkeTffcCmkld0RfmDk9-80" value="for ( i &amp;lt; row4, i++ )" style="rhombus;whiteSpace=wrap;html=1;" vertex="1" parent="1">
          <mxGeometry x="352.5" y="2530" width="146" height="90" as="geometry" />
        </mxCell>
        <mxCell id="hdkeTffcCmkld0RfmDk9-84" style="edgeStyle=orthogonalEdgeStyle;rounded=0;orthogonalLoop=1;jettySize=auto;html=1;entryX=0.5;entryY=0;entryDx=0;entryDy=0;" edge="1" parent="1" source="hdkeTffcCmkld0RfmDk9-81" target="hdkeTffcCmkld0RfmDk9-83">
          <mxGeometry relative="1" as="geometry" />
        </mxCell>
        <mxCell id="hdkeTffcCmkld0RfmDk9-87" style="edgeStyle=orthogonalEdgeStyle;rounded=0;orthogonalLoop=1;jettySize=auto;html=1;entryX=1;entryY=1;entryDx=0;entryDy=0;" edge="1" parent="1" source="hdkeTffcCmkld0RfmDk9-81" target="hdkeTffcCmkld0RfmDk9-80">
          <mxGeometry relative="1" as="geometry" />
        </mxCell>
        <mxCell id="hdkeTffcCmkld0RfmDk9-81" value="for ( j &amp;lt; col4, j++)" style="rhombus;whiteSpace=wrap;html=1;" vertex="1" parent="1">
          <mxGeometry x="521.5" y="2630" width="146" height="90" as="geometry" />
        </mxCell>
        <mxCell id="hdkeTffcCmkld0RfmDk9-85" style="edgeStyle=orthogonalEdgeStyle;rounded=0;orthogonalLoop=1;jettySize=auto;html=1;entryX=1;entryY=1;entryDx=0;entryDy=0;" edge="1" parent="1" source="hdkeTffcCmkld0RfmDk9-83" target="hdkeTffcCmkld0RfmDk9-81">
          <mxGeometry relative="1" as="geometry" />
        </mxCell>
        <mxCell id="hdkeTffcCmkld0RfmDk9-83" value="output matrix4[i][j]" style="shape=parallelogram;perimeter=parallelogramPerimeter;whiteSpace=wrap;html=1;fixedSize=1;" vertex="1" parent="1">
          <mxGeometry x="674" y="2730" width="219" height="60" as="geometry" />
        </mxCell>
        <mxCell id="hdkeTffcCmkld0RfmDk9-88" style="edgeStyle=orthogonalEdgeStyle;rounded=0;orthogonalLoop=1;jettySize=auto;html=1;entryX=0.5;entryY=0;entryDx=0;entryDy=0;entryPerimeter=0;" edge="1" parent="1" source="hdkeTffcCmkld0RfmDk9-80" target="hdkeTffcCmkld0RfmDk9-2">
          <mxGeometry relative="1" as="geometry" />
        </mxCell>
      </root>
    </mxGraphModel>
  </diagram>
</mxfile>
